<mxfile host="Electron" modified="2024-02-10T06:04:54.449Z" agent="Mozilla/5.0 (Windows NT 10.0; Win64; x64) AppleWebKit/537.36 (KHTML, like Gecko) draw.io/23.0.2 Chrome/120.0.6099.109 Electron/28.1.0 Safari/537.36" etag="KtGvgoVIEI8dWQa0zBjV" version="23.0.2" type="device">
  <diagram name="Page-1" id="m-kjkgAoQ4sqhnd3K9b-">
    <mxGraphModel dx="1434" dy="854" grid="1" gridSize="10" guides="1" tooltips="1" connect="1" arrows="1" fold="1" page="1" pageScale="1" pageWidth="1200" pageHeight="1920" math="0" shadow="0">
      <root>
        <mxCell id="0" />
        <mxCell id="1" parent="0" />
        <mxCell id="mV7aUDMj5YlU1B_0qr5b-7" style="edgeStyle=orthogonalEdgeStyle;rounded=0;orthogonalLoop=1;jettySize=auto;html=1;exitX=0.75;exitY=0.1;exitDx=0;exitDy=0;exitPerimeter=0;entryX=0;entryY=0.5;entryDx=0;entryDy=0;endArrow=none;endFill=0;" parent="1" source="mV7aUDMj5YlU1B_0qr5b-1" target="mV7aUDMj5YlU1B_0qr5b-2" edge="1">
          <mxGeometry relative="1" as="geometry">
            <Array as="points">
              <mxPoint x="390" y="376" />
              <mxPoint x="390" y="280" />
            </Array>
          </mxGeometry>
        </mxCell>
        <mxCell id="mV7aUDMj5YlU1B_0qr5b-8" style="edgeStyle=orthogonalEdgeStyle;rounded=0;orthogonalLoop=1;jettySize=auto;html=1;exitX=1;exitY=0.3333333333333333;exitDx=0;exitDy=0;exitPerimeter=0;entryX=0;entryY=0.5;entryDx=0;entryDy=0;endArrow=none;endFill=0;" parent="1" source="mV7aUDMj5YlU1B_0qr5b-1" target="mV7aUDMj5YlU1B_0qr5b-3" edge="1">
          <mxGeometry relative="1" as="geometry" />
        </mxCell>
        <mxCell id="mV7aUDMj5YlU1B_0qr5b-10" style="edgeStyle=orthogonalEdgeStyle;rounded=0;orthogonalLoop=1;jettySize=auto;html=1;exitX=1;exitY=1;exitDx=0;exitDy=0;exitPerimeter=0;entryX=0;entryY=0.5;entryDx=0;entryDy=0;endArrow=none;endFill=0;" parent="1" source="mV7aUDMj5YlU1B_0qr5b-1" target="mV7aUDMj5YlU1B_0qr5b-4" edge="1">
          <mxGeometry relative="1" as="geometry" />
        </mxCell>
        <mxCell id="mV7aUDMj5YlU1B_0qr5b-1" value="Visitor" style="shape=umlActor;verticalLabelPosition=bottom;verticalAlign=top;html=1;outlineConnect=0;" parent="1" vertex="1">
          <mxGeometry x="360" y="370" width="30" height="60" as="geometry" />
        </mxCell>
        <mxCell id="mV7aUDMj5YlU1B_0qr5b-11" value="use cases" style="shape=umlFrame;whiteSpace=wrap;html=1;pointerEvents=0;recursiveResize=0;container=1;collapsible=0;width=160;" parent="1" vertex="1">
          <mxGeometry x="280" y="200" width="520" height="410" as="geometry" />
        </mxCell>
        <mxCell id="yTSK--ZQRFFE_ojuT4Y_-4" value="" style="rounded=0;whiteSpace=wrap;html=1;opacity=30;fillColor=#dae8fc;strokeColor=#6c8ebf;" vertex="1" parent="mV7aUDMj5YlU1B_0qr5b-11">
          <mxGeometry x="150" y="30" width="160" height="370" as="geometry" />
        </mxCell>
        <mxCell id="yTSK--ZQRFFE_ojuT4Y_-1" value="User" style="shape=umlActor;verticalLabelPosition=bottom;verticalAlign=top;html=1;outlineConnect=0;" vertex="1" parent="mV7aUDMj5YlU1B_0qr5b-11">
          <mxGeometry x="370" y="220" width="30" height="60" as="geometry" />
        </mxCell>
        <mxCell id="yTSK--ZQRFFE_ojuT4Y_-2" style="edgeStyle=orthogonalEdgeStyle;rounded=0;orthogonalLoop=1;jettySize=auto;html=1;exitX=0;exitY=0.3333333333333333;exitDx=0;exitDy=0;exitPerimeter=0;entryX=1;entryY=0.5;entryDx=0;entryDy=0;endArrow=none;endFill=0;" edge="1" parent="1" source="yTSK--ZQRFFE_ojuT4Y_-1" target="mV7aUDMj5YlU1B_0qr5b-6">
          <mxGeometry relative="1" as="geometry" />
        </mxCell>
        <mxCell id="mV7aUDMj5YlU1B_0qr5b-2" value="Register" style="ellipse;whiteSpace=wrap;html=1;" parent="1" vertex="1">
          <mxGeometry x="450" y="240" width="120" height="80" as="geometry" />
        </mxCell>
        <mxCell id="mV7aUDMj5YlU1B_0qr5b-3" value="Login" style="ellipse;whiteSpace=wrap;html=1;" parent="1" vertex="1">
          <mxGeometry x="450" y="330" width="120" height="80" as="geometry" />
        </mxCell>
        <mxCell id="mV7aUDMj5YlU1B_0qr5b-6" value="Logout" style="ellipse;whiteSpace=wrap;html=1;" parent="1" vertex="1">
          <mxGeometry x="440" y="420" width="120" height="80" as="geometry" />
        </mxCell>
        <mxCell id="mV7aUDMj5YlU1B_0qr5b-4" value="Restore password" style="ellipse;whiteSpace=wrap;html=1;" parent="1" vertex="1">
          <mxGeometry x="440" y="510" width="120" height="80" as="geometry" />
        </mxCell>
      </root>
    </mxGraphModel>
  </diagram>
</mxfile>
